
      <svg data-logo="logo" xmlns="http://www.w3.org/2000/svg" viewBox="0 0 246 43">
        <g id="logogram" transform="translate(0, 1) rotate(0) "><path fill-rule="evenodd" clip-rule="evenodd" d="M9.00537 3.67782C7.57471 4.67818 6.28101 5.86093 5.15796 7.19235C9.74726 6.76628 15.5778 7.462 22.347 10.8466C29.5756 14.4608 35.3964 14.583 39.4474 13.8016C39.0798 12.6887 38.617 11.6191 38.0689 10.6023C33.4316 11.0914 27.4866 10.444 20.5582 6.97993C16.1586 4.78013 12.2804 3.87396 9.00537 3.67782ZM35.36 6.7466C31.6979 2.65495 26.376 0.0799561 20.4526 0.0799561C18.7131 0.0799561 17.0253 0.302063 15.4163 0.719436C17.5955 1.31404 19.9105 2.18394 22.347 3.40222C27.4196 5.93848 31.799 6.75511 35.36 6.7466ZM40.3135 17.708C35.4195 18.6744 28.6614 18.4759 20.5582 14.4243C12.9826 10.6365 6.95307 10.6842 2.88654 11.5879C2.67664 11.6345 2.47168 11.6835 2.27167 11.7345C1.73926 12.8924 1.31427 14.11 1.00934 15.3744C1.33502 15.2874 1.67157 15.2047 2.0188 15.1275C6.95221 14.0312 13.9227 14.0788 22.347 18.291C29.9227 22.0788 35.9522 22.0311 40.0188 21.1274C40.1581 21.0965 40.2954 21.0645 40.4304 21.0315C40.4452 20.7162 40.4526 20.3989 40.4526 20.0799C40.4526 19.2774 40.4054 18.4859 40.3135 17.708ZM39.7774 25.2522C34.9309 26.0995 28.3696 25.7743 20.5582 21.8687C12.9826 18.0809 6.95307 18.1286 2.88654 19.0323C1.98389 19.2328 1.17188 19.4771 0.455567 19.735C0.453614 19.8497 0.452637 19.9647 0.452637 20.0799C0.452637 31.1256 9.40693 40.0799 20.4526 40.0799C29.7097 40.0799 37.4979 33.7908 39.7774 25.2522Z" fill="#7F57F1"/></g>
        <g id="logotype" transform="translate(47, 8.5)"><path fill="#111111" d="M12.60 26L6.84 26L15.54 0.54L22.37 0.54L31.29 26L25.50 26L21.42 13.71Q20.68 11.34 19.92 8.51Q19.16 5.68 18.32 2.33L18.32 2.33L19.45 2.33Q18.65 5.70 17.94 8.54Q17.23 11.39 16.53 13.71L16.53 13.71L12.60 26ZM25.86 20.09L12.27 20.09L12.27 16.00L25.86 16.00L25.86 20.09ZM39.63 26.38L39.63 26.38Q37.32 26.38 35.55 25.72Q33.77 25.06 32.64 23.80Q31.51 22.55 31.19 20.77L31.19 20.77L35.96 19.95Q36.33 21.28 37.27 21.95Q38.21 22.62 39.78 22.62L39.78 22.62Q41.24 22.62 42.09 22.06Q42.95 21.51 42.95 20.65L42.95 20.65Q42.95 19.90 42.34 19.42Q41.73 18.94 40.49 18.69L40.49 18.69L37.19 18.00Q34.42 17.44 33.05 16.08Q31.68 14.72 31.68 12.58L31.68 12.58Q31.68 10.74 32.69 9.41Q33.70 8.09 35.50 7.37Q37.29 6.65 39.72 6.65L39.72 6.65Q41.97 6.65 43.63 7.28Q45.29 7.90 46.31 9.05Q47.34 10.19 47.68 11.75L47.68 11.75L43.13 12.55Q42.84 11.58 42.01 10.95Q41.19 10.33 39.78 10.33L39.78 10.33Q38.52 10.33 37.67 10.86Q36.81 11.39 36.81 12.26L36.81 12.26Q36.81 12.99 37.37 13.49Q37.92 13.99 39.27 14.26L39.27 14.26L42.71 14.94Q45.48 15.51 46.83 16.78Q48.18 18.05 48.18 20.10L48.18 20.10Q48.18 21.98 47.08 23.39Q45.99 24.80 44.07 25.59Q42.14 26.38 39.63 26.38ZM56.96 26.38L56.96 26.38Q54.65 26.38 52.87 25.72Q51.10 25.06 49.97 23.80Q48.84 22.55 48.52 20.77L48.52 20.77L53.28 19.95Q53.66 21.28 54.60 21.95Q55.54 22.62 57.11 22.62L57.11 22.62Q58.56 22.62 59.42 22.06Q60.27 21.51 60.27 20.65L60.27 20.65Q60.27 19.90 59.67 19.42Q59.06 18.94 57.81 18.69L57.81 18.69L54.51 18.00Q51.75 17.44 50.38 16.08Q49.01 14.72 49.01 12.58L49.01 12.58Q49.01 10.74 50.02 9.41Q51.03 8.09 52.82 7.37Q54.62 6.65 57.04 6.65L57.04 6.65Q59.30 6.65 60.96 7.28Q62.61 7.90 63.64 9.05Q64.67 10.19 65.01 11.75L65.01 11.75L60.46 12.55Q60.17 11.58 59.34 10.95Q58.51 10.33 57.11 10.33L57.11 10.33Q55.85 10.33 54.99 10.86Q54.14 11.39 54.14 12.26L54.14 12.26Q54.14 12.99 54.69 13.49Q55.25 13.99 56.60 14.26L56.60 14.26L60.03 14.94Q62.80 15.51 64.15 16.78Q65.50 18.05 65.50 20.10L65.50 20.10Q65.50 21.98 64.41 23.39Q63.32 24.80 61.39 25.59Q59.47 26.38 56.96 26.38ZM75.33 26.38L75.33 26.38Q72.40 26.38 70.29 25.18Q68.17 23.98 67.03 21.78Q65.89 19.57 65.89 16.55L65.89 16.55Q65.89 13.59 67.02 11.37Q68.15 9.15 70.22 7.90Q72.29 6.65 75.07 6.65L75.07 6.65Q76.95 6.65 78.57 7.25Q80.20 7.85 81.43 9.06Q82.66 10.26 83.35 12.07Q84.04 13.88 84.04 16.34L84.04 16.34L84.04 17.78L68.00 17.78L68.00 14.57L81.53 14.57L79.14 15.42Q79.14 13.93 78.69 12.83Q78.23 11.73 77.34 11.12Q76.44 10.52 75.11 10.52L75.11 10.52Q73.79 10.52 72.86 11.13Q71.93 11.75 71.45 12.80Q70.97 13.85 70.97 15.20L70.97 15.20L70.97 17.47Q70.97 19.13 71.52 20.26Q72.08 21.39 73.08 21.95Q74.08 22.51 75.41 22.51L75.41 22.51Q76.32 22.51 77.05 22.26Q77.79 22.00 78.31 21.50Q78.83 20.99 79.10 20.26L79.10 20.26L83.75 21.13Q83.29 22.70 82.15 23.89Q81.00 25.08 79.28 25.73Q77.57 26.38 75.33 26.38ZM92.86 26.38L92.86 26.38Q90.55 26.38 88.77 25.72Q87.00 25.06 85.87 23.80Q84.74 22.55 84.42 20.77L84.42 20.77L89.19 19.95Q89.56 21.28 90.50 21.95Q91.44 22.62 93.01 22.62L93.01 22.62Q94.47 22.62 95.32 22.06Q96.17 21.51 96.17 20.65L96.17 20.65Q96.17 19.90 95.57 19.42Q94.96 18.94 93.71 18.69L93.71 18.69L90.42 18.00Q87.65 17.44 86.28 16.08Q84.91 14.72 84.91 12.58L84.91 12.58Q84.91 10.74 85.92 9.41Q86.93 8.09 88.72 7.37Q90.52 6.65 92.94 6.65L92.94 6.65Q95.20 6.65 96.86 7.28Q98.52 7.90 99.54 9.05Q100.57 10.19 100.91 11.75L100.91 11.75L96.36 12.55Q96.07 11.58 95.24 10.95Q94.41 10.33 93.01 10.33L93.01 10.33Q91.75 10.33 90.89 10.86Q90.04 11.39 90.04 12.26L90.04 12.26Q90.04 12.99 90.60 13.49Q91.15 13.99 92.50 14.26L92.50 14.26L95.94 14.94Q98.70 15.51 100.05 16.78Q101.40 18.05 101.40 20.10L101.40 20.10Q101.40 21.98 100.31 23.39Q99.22 24.80 97.29 25.59Q95.37 26.38 92.86 26.38ZM110.19 26.38L110.19 26.38Q107.88 26.38 106.10 25.72Q104.32 25.06 103.20 23.80Q102.07 22.55 101.74 20.77L101.74 20.77L106.51 19.95Q106.89 21.28 107.83 21.95Q108.77 22.62 110.34 22.62L110.34 22.62Q111.79 22.62 112.65 22.06Q113.50 21.51 113.50 20.65L113.50 20.65Q113.50 19.90 112.90 19.42Q112.29 18.94 111.04 18.69L111.04 18.69L107.74 18.00Q104.97 17.44 103.61 16.08Q102.24 14.72 102.24 12.58L102.24 12.58Q102.24 10.74 103.25 9.41Q104.26 8.09 106.05 7.37Q107.85 6.65 110.27 6.65L110.27 6.65Q112.53 6.65 114.19 7.28Q115.84 7.90 116.87 9.05Q117.89 10.19 118.24 11.75L118.24 11.75L113.69 12.55Q113.40 11.58 112.57 10.95Q111.74 10.33 110.34 10.33L110.34 10.33Q109.08 10.33 108.22 10.86Q107.37 11.39 107.37 12.26L107.37 12.26Q107.37 12.99 107.92 13.49Q108.48 13.99 109.83 14.26L109.83 14.26L113.26 14.94Q116.03 15.51 117.38 16.78Q118.73 18.05 118.73 20.10L118.73 20.10Q118.73 21.98 117.64 23.39Q116.54 24.80 114.62 25.59Q112.70 26.38 110.19 26.38ZM125.05 26L119.93 26L119.93 6.89L124.68 6.89L124.93 11.64L124.56 11.64Q125.00 9.88 125.86 8.77Q126.73 7.66 127.89 7.13Q129.05 6.60 130.33 6.60L130.33 6.60Q132.40 6.60 133.67 7.91Q134.93 9.22 135.53 11.95L135.53 11.95L134.93 11.95Q135.36 10.12 136.32 8.94Q137.29 7.75 138.61 7.18Q139.94 6.60 141.39 6.60L141.39 6.60Q143.15 6.60 144.53 7.37Q145.90 8.14 146.70 9.59Q147.49 11.03 147.49 13.11L147.49 13.11L147.49 26L142.36 26L142.36 14.09Q142.36 12.46 141.48 11.68Q140.60 10.89 139.32 10.89L139.32 10.89Q138.37 10.89 137.66 11.31Q136.95 11.73 136.56 12.48Q136.18 13.23 136.18 14.24L136.18 14.24L136.18 26L131.22 26L131.22 13.95Q131.22 12.55 130.39 11.72Q129.56 10.89 128.25 10.89L128.25 10.89Q127.34 10.89 126.62 11.30Q125.89 11.71 125.47 12.51Q125.05 13.30 125.05 14.45L125.05 14.45L125.05 26ZM158.22 26.38L158.22 26.38Q155.30 26.38 153.18 25.18Q151.06 23.98 149.92 21.78Q148.79 19.57 148.79 16.55L148.79 16.55Q148.79 13.59 149.92 11.37Q151.04 9.15 153.11 7.90Q155.18 6.65 157.97 6.65L157.97 6.65Q159.85 6.65 161.47 7.25Q163.09 7.85 164.32 9.06Q165.55 10.26 166.25 12.07Q166.94 13.88 166.94 16.34L166.94 16.34L166.94 17.78L150.89 17.78L150.89 14.57L164.43 14.57L162.03 15.42Q162.03 13.93 161.58 12.83Q161.13 11.73 160.23 11.12Q159.33 10.52 158.00 10.52L158.00 10.52Q156.68 10.52 155.75 11.13Q154.82 11.75 154.34 12.80Q153.86 13.85 153.86 15.20L153.86 15.20L153.86 17.47Q153.86 19.13 154.42 20.26Q154.97 21.39 155.97 21.95Q156.97 22.51 158.31 22.51L158.31 22.51Q159.21 22.51 159.95 22.26Q160.68 22.00 161.20 21.50Q161.73 20.99 162.00 20.26L162.00 20.26L166.65 21.13Q166.19 22.70 165.04 23.89Q163.90 25.08 162.18 25.73Q160.46 26.38 158.22 26.38ZM173.29 14.94L173.29 14.94L173.29 26L168.17 26L168.17 6.89L173.00 6.89L173.09 11.66L172.78 11.66Q173.53 9.27 175.06 7.96Q176.59 6.65 179.02 6.65L179.02 6.65Q181.00 6.65 182.47 7.52Q183.94 8.38 184.76 10.00Q185.58 11.61 185.58 13.85L185.58 13.85L185.58 26L180.45 26L180.45 14.74Q180.45 12.96 179.54 11.95Q178.63 10.94 177.00 10.94L177.00 10.94Q175.92 10.94 175.08 11.41Q174.23 11.88 173.76 12.77Q173.29 13.66 173.29 14.94ZM185.84 6.89L197.17 6.89L197.17 10.81L185.84 10.81L185.84 6.89ZM188.47 20.86L188.47 2.35L193.59 2.35L193.59 20.41Q193.59 21.32 194.00 21.75Q194.40 22.19 195.34 22.19L195.34 22.19Q195.63 22.19 196.16 22.11Q196.69 22.04 196.96 21.97L196.96 21.97L197.70 25.81Q196.84 26.07 195.99 26.17Q195.15 26.27 194.38 26.27L194.38 26.27Q191.51 26.27 189.99 24.87Q188.47 23.47 188.47 20.86L188.47 20.86Z"/></g>
        
      </svg>
    