
      <svg data-logo="logo" xmlns="http://www.w3.org/2000/svg" viewBox="0 0 241 42">
        <g id="logogram" transform="translate(0, 1) rotate(0) "><path d="M33.724 36.5809C37.7426 32.5622 40.0003 27.1118 40.0003 21.4286C40.0003 15.7454 37.7426 10.2949 33.724 6.27629C29.7054 2.25765 24.2549 1.02188e-06 18.5717 0C12.8885 -1.02188e-06 7.43807 2.25764 3.41943 6.27628L10.4905 13.3473C11.6063 14.4631 13.4081 14.4074 14.8276 13.7181C15.9836 13.1568 17.2622 12.8571 18.5717 12.8571C20.845 12.8571 23.0252 13.7602 24.6326 15.3677C26.2401 16.9751 27.1431 19.1553 27.1431 21.4286C27.1431 22.7381 26.8435 24.0167 26.2822 25.1727C25.5929 26.5922 25.5372 28.394 26.6529 29.5098L33.724 36.5809Z" fill="#297AFF"/><path d="M30 40H19.5098C17.9943 40 16.5408 39.398 15.4692 38.3263L1.67368 24.5308C0.60204 23.4592 0 22.0057 0 20.4902V10L30 40Z" fill="#34C2FF"/><path d="M10.7143 39.9999H4.28571C1.91878 39.9999 0 38.0812 0 35.7142V29.2856L10.7143 39.9999Z" fill="#34C2FF"/></g>
        <g id="logotype" transform="translate(46, 8.5)"><path fill="#111111" d="M14.47 25L8.13 25L8.13 0.01L14.47 0.01L14.47 25ZM24.52 25L18.46 25L18.46 7.01L24.52 7.01L24.52 11.63L23.92 10.96Q24.55 9.46 25.64 8.48Q26.72 7.50 28.17 7.01Q29.63 6.52 31.23 6.52L31.23 6.52Q33.02 6.52 34.35 7.06Q35.68 7.60 36.54 8.60Q37.40 9.60 37.85 11.02Q38.31 12.43 38.31 14.25L38.31 14.25L38.31 25L32.29 25L32.29 15.23Q32.29 13.94 31.87 13.05Q31.45 12.15 30.64 11.66Q29.84 11.17 28.68 11.17L28.68 11.17Q27.39 11.17 26.44 11.75Q25.50 12.33 25.01 13.33Q24.52 14.32 24.52 15.58L24.52 15.58L24.52 25ZM47.83 25L41.77 25L41.77 7.01L47.83 7.01L47.83 11.63L47.23 10.96Q47.86 9.46 48.95 8.48Q50.03 7.50 51.48 7.01Q52.94 6.52 54.55 6.52L54.55 6.52Q56.33 6.52 57.66 7.06Q58.99 7.60 59.85 8.60Q60.71 9.60 61.16 11.02Q61.62 12.43 61.62 14.25L61.62 14.25L61.62 25L55.60 25L55.60 15.23Q55.60 13.94 55.18 13.05Q54.76 12.15 53.95 11.66Q53.15 11.17 51.99 11.17L51.99 11.17Q50.70 11.17 49.75 11.75Q48.81 12.33 48.32 13.33Q47.83 14.32 47.83 15.58L47.83 15.58L47.83 25ZM77.96 16.63L65.71 16.63L65.71 11.80L77.96 11.80L77.96 16.63ZM95.60 25L90.42 25Q87.72 25 86.15 23.51Q84.58 22.02 84.58 19.43L84.58 19.43L84.58 2.14L90.56 2.14L90.56 18.14Q90.56 19.36 91.21 20.06Q91.86 20.77 93.08 20.77L93.08 20.77L95.60 20.77L95.60 25ZM85.14 11.24L80.94 11.24L80.94 7.01L85.14 7.01L85.14 11.24ZM95.60 11.24L90 11.24L90 7.01L95.60 7.01L95.60 11.24ZM104.31 25L98.29 25L98.29 7.01L104.31 7.01L104.31 12.96L103.89 12.75Q104.35 10.68 105.17 9.41Q105.99 8.13 107.25 7.57Q108.52 7.01 110.30 7.01L110.30 7.01L111.66 7.01L111.66 12.50L109.56 12.50Q107.92 12.50 106.75 13.20Q105.57 13.90 104.94 15.22Q104.31 16.53 104.31 18.38L104.31 18.38L104.31 25ZM119.40 25.49L119.40 25.49Q116.42 25.49 114.74 24.07Q113.06 22.66 113.06 20.27L113.06 20.27Q113.06 18.66 113.83 17.49Q114.60 16.32 116.18 15.55Q117.75 14.78 120.10 14.46L120.10 14.46L124.54 13.90Q125.31 13.76 125.70 13.40Q126.08 13.03 126.08 12.40L126.08 12.40L126.08 12.36Q126.08 11.73 125.73 11.30Q125.38 10.86 124.72 10.65Q124.05 10.44 123.07 10.44L123.07 10.44Q121.67 10.44 120.80 10.81Q119.92 11.17 119.75 12.08L119.75 12.08L113.83 12.08Q114.15 10.16 115.39 8.93Q116.63 7.71 118.63 7.11Q120.62 6.52 123.21 6.52L123.21 6.52Q126.15 6.52 128.13 7.27Q130.11 8.02 131.07 9.55Q132.03 11.07 132.03 13.41L132.03 13.41L132.03 25L126.40 25L126.40 20.38L126.99 21.04Q126.33 22.59 125.23 23.55Q124.12 24.51 122.65 25Q121.18 25.49 119.40 25.49ZM121.50 21.36L121.50 21.36Q122.55 21.36 123.41 20.99Q124.26 20.63 124.88 20.01Q125.49 19.40 125.79 18.63Q126.08 17.86 126.08 17.02L126.08 17.02L126.08 14.74L127.03 15.90Q126.61 16.32 126.00 16.53Q125.38 16.74 124.16 16.98L124.16 16.98L121.22 17.51Q120.17 17.75 119.63 18.24Q119.08 18.73 119.08 19.47L119.08 19.47Q119.08 20.38 119.75 20.87Q120.41 21.36 121.50 21.36ZM141.55 25L135.50 25L135.50 7.01L141.55 7.01L141.55 11.63L140.96 10.96Q141.59 9.46 142.67 8.48Q143.76 7.50 145.21 7.01Q146.66 6.52 148.27 6.52L148.27 6.52Q150.06 6.52 151.39 7.06Q152.72 7.60 153.58 8.60Q154.43 9.60 154.89 11.02Q155.34 12.43 155.34 14.25L155.34 14.25L155.34 25L149.32 25L149.32 15.23Q149.32 13.94 148.90 13.05Q148.48 12.15 147.68 11.66Q146.87 11.17 145.72 11.17L145.72 11.17Q144.42 11.17 143.48 11.75Q142.53 12.33 142.04 13.33Q141.55 14.32 141.55 15.58L141.55 15.58L141.55 25ZM168.36 25.49L168.36 25.49Q165.18 25.49 162.83 24.27Q160.49 23.04 159.25 20.91Q158.00 18.77 158.00 16.00L158.00 16.00Q158.00 14.32 158.46 12.87Q158.91 11.42 159.79 10.26Q160.66 9.11 161.92 8.27Q163.18 7.43 164.79 6.97Q166.40 6.52 168.33 6.52L168.33 6.52Q170.57 6.52 172.44 7.13Q174.31 7.74 175.63 9.02Q176.94 10.30 177.64 12.36Q178.34 14.43 178.27 17.34L178.27 17.34L161.89 17.34L161.89 14.11L172.53 14.11Q172.35 13.13 172.00 12.49Q171.65 11.84 171.09 11.40Q170.53 10.96 169.83 10.77Q169.13 10.58 168.29 10.58L168.29 10.58Q167.38 10.58 166.65 10.82Q165.91 11.07 165.37 11.54Q164.83 12.01 164.46 12.68Q164.09 13.34 163.92 14.18Q163.74 15.02 163.74 16.00L163.74 16.00Q163.74 17.65 164.23 18.88Q164.72 20.10 165.77 20.77Q166.82 21.43 168.40 21.43L168.40 21.43Q169.76 21.43 170.71 21.01Q171.65 20.59 172.11 19.82L172.11 19.82L178.16 19.82Q177.85 21.29 176.71 22.59Q175.57 23.88 173.51 24.68Q171.44 25.49 168.36 25.49ZM194.30 25L189.12 25Q186.42 25 184.85 23.51Q183.27 22.02 183.27 19.43L183.27 19.43L183.27 2.14L189.26 2.14L189.26 18.14Q189.26 19.36 189.91 20.06Q190.55 20.77 191.78 20.77L191.78 20.77L194.30 20.77L194.30 25ZM183.83 11.24L179.63 11.24L179.63 7.01L183.83 7.01L183.83 11.24ZM194.30 11.24L188.70 11.24L188.70 7.01L194.30 7.01L194.30 11.24Z"/></g>
        
      </svg>
    